<svg width="595" height="659" viewBox="0 0 595 659" fill="none" xmlns="http://www.w3.org/2000/svg">
<path d="M281.61 235.886L273.124 210.118C269.63 213.091 263.041 219.434 264.638 226.966C266.235 234.498 276.618 236.712 281.61 235.886Z" stroke="black"/>
<path d="M322.043 284.945L312.559 257.69C319.269 256.328 331.738 260.43 332.525 270.574C333.091 277.863 326.369 283.293 322.043 284.945Z" stroke="black"/>
<path d="M266.635 1L47.5 90.1972L61.9759 159.077L89.4301 225.975L130.362 300.306L175.287 361.258L210.728 398.919L256.152 389.008L233.69 361.258L214.222 326.57L199.746 295.351L183.274 240.841L175.287 189.305L173.29 159.077L334.521 83.7552L329.031 36.6789L175.287 110.514L123.373 134.3C119.779 147.555 124.871 181.779 127.866 196.738L134.854 230.931L145.836 263.636L157.317 288.413L169.297 310.713L208.232 377.115C196.751 361.092 160.312 316.659 127.866 244.31C124.871 235.886 116.185 205.955 105.403 155.609V128.354L274.122 48.5719L266.635 1Z" stroke="black"/>
<path d="M266.635 1L47.5 90.1972L61.9759 159.077L89.4301 225.975L130.362 300.306L175.287 361.258L210.728 398.919L256.152 389.008L233.69 361.258L214.222 326.57L199.746 295.351L183.274 240.841L175.287 189.305L173.29 159.077L334.521 83.7552L329.031 36.6789L175.287 110.514L123.373 134.3C119.779 147.555 124.871 181.779 127.866 196.738L134.854 230.931L145.836 263.636L157.317 288.413L169.297 310.713L208.232 377.115C196.751 361.092 160.312 316.659 127.866 244.31C124.871 235.886 116.185 205.955 105.403 155.609V128.354L274.122 48.5719L266.635 1Z" fill="#00A8DE" stroke="#00A8DE"/>
<path d="M394.921 73.8444L185.77 164.528L187.267 192.774L190.761 213.587L202.741 268.592L220.711 317.155L241.177 353.825L264.638 385.539L306.069 368.195L336.019 350.851L366.967 330.039L393.423 309.226L389.43 292.378L385.437 271.069L382.442 239.355V212.1V195.252L383.44 177.908L385.437 142.724L394.921 73.8444Z" stroke="black"/>
<path d="M394.921 73.8444L185.77 164.528L187.267 192.774L190.761 213.587L202.741 268.592L220.711 317.155L241.177 353.825L264.638 385.539L306.069 368.195L336.019 350.851L366.967 330.039L393.423 309.226L389.43 292.378L385.437 271.069L382.442 239.355V212.1V195.252L383.44 177.908L385.437 142.724L394.921 73.8444Z" fill="#2075F3" stroke="#2075F3"/>
<path d="M283.608 166.015L261.146 172.457L265.638 188.81L259.647 191.783L254.156 196.243C245.171 202.685 239.181 220.524 240.679 228.948C244.563 250.8 252.493 252.874 259.648 256.699C266.137 260.168 281.611 261.159 290.097 260.663L300.081 292.378L293.092 291.387L285.605 286.431L277.618 279.989L255.655 285.936L257.152 289.9C257.152 293.864 263.142 300.306 267.635 304.766C272.127 309.226 272.127 308.235 284.606 312.695C294.59 316.263 303.741 314.181 307.069 312.695L310.563 325.083L333.026 318.146L328.033 306.253C334.023 306.649 348.332 293.534 352.991 286.927C355.654 281.806 359.381 267.204 352.991 249.761C346.602 232.318 318.217 231.922 305.572 233.904L300.579 220.029L296.586 204.667L305.57 207.64L311.061 213.587L313.058 216.064C320.379 213.917 334.224 209.226 335.022 207.64C336.021 205.658 324.952 192.689 323.54 191.287C321.544 189.305 312.837 184.542 308.067 183.359C304.073 182.368 293.591 181.377 288.6 181.377L283.608 166.015Z" stroke="black"/>
<path d="M283.608 166.015L261.146 172.457L265.638 188.81L259.647 191.783L254.156 196.243C245.171 202.685 239.181 220.524 240.679 228.948C244.563 250.8 252.493 252.874 259.648 256.699C266.137 260.168 281.611 261.159 290.097 260.663L300.081 292.378L293.092 291.387L285.605 286.431L277.618 279.989L255.655 285.936L257.152 289.9C257.152 293.864 263.142 300.306 267.635 304.766C272.127 309.226 272.127 308.235 284.606 312.695C294.59 316.263 303.741 314.181 307.069 312.695L310.563 325.083L333.026 318.146L328.033 306.253C334.023 306.649 348.332 293.534 352.991 286.927C355.654 281.806 359.381 267.204 352.991 249.761C346.602 232.318 318.217 231.922 305.572 233.904L300.579 220.029L296.586 204.667L305.57 207.64L311.061 213.587L313.058 216.064C320.379 213.917 334.224 209.226 335.022 207.64C336.021 205.658 324.952 192.689 323.54 191.287C321.544 189.305 312.837 184.542 308.067 183.359C304.073 182.368 293.591 181.377 288.6 181.377L283.608 166.015Z" fill="white" stroke="white"/>
<path d="M242.674 148.671L195.752 169.484L198.747 197.729L203.239 224.984C203.905 210.944 205.365 185.13 206.234 180.385C207.233 174.935 208.73 173.943 215.219 168.493L242.674 148.671Z" stroke="black"/>
<path d="M242.674 148.671L195.752 169.484L198.747 197.729L203.239 224.984C203.905 210.944 205.365 185.13 206.234 180.385C207.233 174.935 208.73 173.943 215.219 168.493L242.674 148.671Z" fill="#609FFF" stroke="#609FFF"/>
<path d="M326.035 464.826C318.447 464.033 299.246 456.897 290.594 453.428L323.04 439.553L336.018 449.464L326.035 439.553C339.512 431.955 366.467 416.263 369.462 414.776C371.635 413.698 410.394 386.695 429.362 372.16L442.341 383.061C450.727 392.179 475.619 399.745 486.268 402.387C478.78 410.646 463.398 428.195 438.347 442.526C408.897 459.375 399.911 462.348 378.447 464.826C356.983 467.303 335.519 465.817 326.035 464.826Z" stroke="black"/>
<path d="M326.035 464.826C318.447 464.033 299.246 456.897 290.594 453.428L323.04 439.553L336.018 449.464L326.035 439.553C339.512 431.955 366.467 416.263 369.462 414.776C371.635 413.698 410.394 386.695 429.362 372.16L442.341 383.061C450.727 392.179 475.619 399.745 486.268 402.387C478.78 410.646 463.398 428.195 438.347 442.526C408.897 459.375 399.911 462.348 378.447 464.826C356.983 467.303 335.519 465.817 326.035 464.826Z" fill="#00A8DE" stroke="#00A8DE"/>
<path d="M292.591 489.603C291.592 489.603 256.152 490.594 239.679 493.071C239.679 493.071 236.185 494.062 241.177 495.549C246.168 497.036 251.659 497.036 251.659 497.036L267.633 498.027L321.543 501H414.887C468.398 501 514.72 499.018 507.732 495.053C500.744 491.089 469.995 489.603 464.804 489.603C459.613 489.603 424.704 488.611 407.899 487.62H345.004C345.004 487.62 293.59 489.603 292.591 489.603Z" stroke="black"/>
<path d="M292.591 489.603C291.592 489.603 256.152 490.594 239.679 493.071C239.679 493.071 236.185 494.062 241.177 495.549C246.168 497.036 251.659 497.036 251.659 497.036L267.633 498.027L321.543 501H414.887C468.398 501 514.72 499.018 507.732 495.053C500.744 491.089 469.995 489.603 464.804 489.603C459.613 489.603 424.704 488.611 407.899 487.62H345.004C345.004 487.62 293.59 489.603 292.591 489.603Z" fill="#E1E1E1" stroke="#EFEFEF"/>
<path d="M103.906 297.333L107.4 284.945C96.1143 298.533 90.181 335.332 90.4282 335.49C90.4282 335.49 85.8692 354.393 89.4298 379.593C92.4132 400.708 103.759 415.315 108.897 419.731C114.555 426.669 134.81 439.987 164.305 453.428C195.633 467.704 284.605 440.049 301.077 434.598C317.549 429.147 410.731 377.406 423.872 361.258L464.804 323.101C480.542 305.394 514.003 264.578 521.709 243.815C529.415 223.051 540.141 193.677 543.672 178.899L543.682 178.858C547.214 164.076 553.08 139.528 535.187 106.55C519.246 77.1722 476.618 62.447 455.819 59.4738C455.819 59.4738 396.917 60.4648 401.41 62.447C405.902 64.4292 480.278 81.2775 500.245 117.452C520.212 153.626 493.372 217.829 484.271 228.948C469.111 251.216 460.096 262.36 443.34 280.485C421.337 302.95 408.848 314.451 385.935 332.516C360.7 352.32 346.481 361.384 321.044 375.628C321.531 375.641 274.749 396.955 262.641 400.901C250.533 404.847 226.701 410.812 219.213 412.298C211.726 413.785 183.273 413.289 183.273 413.289C183.273 413.289 159.313 412.794 144.338 405.856C129.363 398.919 123.373 393.468 123.373 393.468C115.323 386.578 111.477 382.062 105.902 372.655C105.902 372.655 101.072 361.869 99.4132 354.32C97.8317 347.125 97.4165 335.49 97.4165 335.49C97.4165 335.49 97.4849 325.756 98.4148 319.632C98.9224 316.29 100.412 311.208 100.412 311.208L103.906 297.333Z" stroke="black"/>
<path d="M103.906 297.333L107.4 284.945C96.1143 298.533 90.181 335.332 90.4282 335.49C90.4282 335.49 85.8692 354.393 89.4298 379.593C92.4132 400.708 103.759 415.315 108.897 419.731C114.555 426.669 134.81 439.987 164.305 453.428C195.633 467.704 284.605 440.049 301.077 434.598C317.549 429.147 410.731 377.406 423.872 361.258L464.804 323.101C480.542 305.394 514.003 264.578 521.709 243.815C529.415 223.051 540.141 193.677 543.672 178.899L543.682 178.858C547.214 164.076 553.08 139.528 535.187 106.55C519.246 77.1722 476.618 62.447 455.819 59.4738C455.819 59.4738 396.917 60.4648 401.41 62.447C405.902 64.4292 480.278 81.2775 500.245 117.452C520.212 153.626 493.372 217.829 484.271 228.948C469.111 251.216 460.096 262.36 443.34 280.485C421.337 302.95 408.848 314.451 385.935 332.516C360.7 352.32 346.481 361.384 321.044 375.628C321.531 375.641 274.749 396.955 262.641 400.901C250.533 404.847 226.701 410.812 219.213 412.298C211.726 413.785 183.273 413.289 183.273 413.289C183.273 413.289 159.313 412.794 144.338 405.856C129.363 398.919 123.373 393.468 123.373 393.468C115.323 386.578 111.477 382.062 105.902 372.655C105.902 372.655 101.072 361.869 99.4132 354.32C97.8317 347.125 97.4165 335.49 97.4165 335.49C97.4165 335.49 97.4849 325.756 98.4148 319.632C98.9224 316.29 100.412 311.208 100.412 311.208L103.906 297.333Z" fill="#2075F3" stroke="#2075F3"/>
<path d="M281.61 235.886L273.124 210.118C269.63 213.091 263.041 219.434 264.638 226.966C266.235 234.498 276.618 236.712 281.61 235.886Z" fill="#2075F3" stroke="white"/>
<path d="M322.043 284.945L312.559 257.69C319.269 256.328 331.738 260.43 332.525 270.574C333.091 277.863 326.369 283.293 322.043 284.945Z" fill="#2075F3" stroke="white"/>
<path d="M80.1 549.4C83.7667 549.4 85.6 550.9 85.6 553.9C85.6 554.833 85.4 556 85 557.4L82.6 565.5C81.8667 567.967 80.9667 569.7 79.9 570.7C78.8333 571.7 77.3 572.2 75.3 572.2C73.6333 572.2 72.3333 571.767 71.4 570.9C70.5333 570.033 69.7 568.667 68.9 566.8L67.2 562.7C66.6667 561.433 66.1 560.567 65.5 560.1C64.9 559.633 63.9667 559.4 62.7 559.4H60.4L47.7 604.1C47.5 604.967 47.4 605.733 47.4 606.4C47.4 607.2 47.5 607.867 47.7 608.4C47.9667 608.933 48.3333 609.5 48.8 610.1C49.4 611.033 49.7 611.8 49.7 612.4C49.7 612.533 49.6333 612.867 49.5 613.4C49.1667 614.267 48.5 614.9 47.5 615.3C46.5667 615.7 45.2 615.9 43.4 615.9H19.9C18.5 615.9 17.4 615.667 16.6 615.2C15.8667 614.733 15.5 614.067 15.5 613.2C15.5 612.8 15.6 612.4 15.8 612C16.0667 611.4 16.3667 610.967 16.7 610.7C17.1 610.367 17.6667 609.967 18.4 609.5C19.4 608.9 20.2333 608.233 20.9 607.5C21.5667 606.767 22.1333 605.633 22.6 604.1L35.2 559.4H32.9C31.4333 559.4 30.2333 559.633 29.3 560.1C28.3667 560.567 27.3667 561.433 26.3 562.7L23 566.8C21.4667 568.6 19.9667 569.967 18.5 570.9C17.1 571.767 15.5667 572.2 13.9 572.2C12.3667 572.2 11.1667 571.8 10.3 571C9.43333 570.2 9 569.1 9 567.7C9 567.033 9.1 566.3 9.3 565.5L11.9 556.4C12.4333 554.533 13.0333 553.133 13.7 552.2C14.3667 551.2 15.3 550.5 16.5 550.1C17.7667 549.633 19.5333 549.4 21.8 549.4H80.1ZM124.979 563.1C128.712 563.1 131.679 564.233 133.879 566.5C136.146 568.767 137.279 571.567 137.279 574.9C137.279 576.167 137.146 577.333 136.879 578.4C136.212 581.133 134.946 583.233 133.079 584.7C131.212 586.167 128.979 586.9 126.379 586.9C123.846 586.9 121.912 586.3 120.579 585.1C119.312 583.9 118.179 582.3 117.179 580.3C116.646 579.167 116.146 578.333 115.679 577.8C115.212 577.267 114.679 577 114.079 577C113.412 577 112.812 577.267 112.279 577.8C111.812 578.333 111.379 579.267 110.979 580.6L103.279 605.6C103.146 605.933 103.079 606.433 103.079 607.1C103.079 607.967 103.312 608.7 103.779 609.3C104.312 609.833 105.012 610.367 105.879 610.9C106.679 611.433 107.212 611.867 107.479 612.2C107.746 612.533 107.846 612.967 107.779 613.5C107.646 614.367 107.146 615 106.279 615.4C105.479 615.8 104.079 616 102.079 616H76.4789C74.7456 616 73.5122 615.733 72.7789 615.2C71.9789 614.6 71.6789 613.833 71.8789 612.9C72.1456 612.1 72.8456 611.4 73.9789 610.8C74.9789 610.267 75.8122 609.633 76.4789 608.9C77.1456 608.167 77.7122 607 78.1789 605.4L87.0789 576.5C87.2122 576.167 87.2789 575.7 87.2789 575.1C87.2789 574.367 87.1122 573.8 86.7789 573.4C86.5122 573 86.0456 572.5 85.3789 571.9C84.7122 571.367 84.2456 570.9 83.9789 570.5C83.7122 570.1 83.6789 569.567 83.8789 568.9C84.2789 567.367 86.3789 566.033 90.1789 564.9C93.9789 563.7 97.9456 563.1 102.079 563.1C104.812 563.1 107.079 563.733 108.879 565C110.679 566.2 111.846 567.933 112.379 570.2C115.579 565.467 119.779 563.1 124.979 563.1ZM167.536 563.1C175.203 563.1 181.336 564.533 185.936 567.4C190.536 570.2 192.836 574.5 192.836 580.3C192.836 582.5 192.436 585 191.636 587.8L187.536 601.6C187.469 601.867 187.436 602.2 187.436 602.6C187.436 603.667 187.869 604.2 188.736 604.2C189.536 604.2 190.203 603.867 190.736 603.2C191.336 602.467 191.736 602.1 191.936 602.1C192.269 602.1 192.536 602.333 192.736 602.8C193.003 603.267 193.136 603.8 193.136 604.4C193.203 606.2 192.503 608.033 191.036 609.9C189.636 611.767 187.736 613.3 185.336 614.5C182.936 615.7 180.303 616.3 177.436 616.3C173.969 616.3 171.003 615.667 168.536 614.4C166.069 613.133 164.369 611.267 163.436 608.8C161.436 611.2 159.069 613.067 156.336 614.4C153.603 615.667 150.669 616.3 147.536 616.3C144.003 616.3 141.036 615.633 138.636 614.3C136.236 612.9 134.436 611.133 133.236 609C132.103 606.8 131.536 604.5 131.536 602.1C131.536 601.033 131.636 600 131.836 599C132.903 594.4 135.203 590.933 138.736 588.6C142.336 586.267 146.603 585.1 151.536 585.1C157.069 585.1 162.503 585.967 167.836 587.7L170.336 581.1C171.203 578.3 171.636 576.133 171.636 574.6C171.569 573 171.036 571.8 170.036 571C169.036 570.2 167.503 569.8 165.436 569.8C165.836 570.867 166.036 571.967 166.036 573.1C166.036 575.567 165.103 577.7 163.236 579.5C161.369 581.3 158.703 582.2 155.236 582.2C151.969 582.2 149.403 581.5 147.536 580.1C145.736 578.633 144.836 576.833 144.836 574.7C144.836 571.367 146.703 568.6 150.436 566.4C154.169 564.2 159.869 563.1 167.536 563.1ZM161.936 593.4C160.069 593.4 158.536 594.133 157.336 595.6C156.203 597 155.636 598.533 155.636 600.2C155.636 601.267 155.869 602.133 156.336 602.8C156.869 603.467 157.603 603.8 158.536 603.8C159.403 603.8 160.336 603.467 161.336 602.8C162.403 602.067 163.169 601 163.636 599.6L165.736 593.7C164.603 593.5 163.336 593.4 161.936 593.4ZM259.166 602.2C259.032 602.467 258.966 602.867 258.966 603.4C258.966 603.867 259.066 604.233 259.266 604.5C259.532 604.767 259.866 604.9 260.266 604.9C261.066 604.9 261.732 604.567 262.266 603.9C262.866 603.167 263.266 602.8 263.466 602.8C263.799 602.8 264.066 603.033 264.266 603.5C264.466 603.9 264.566 604.4 264.566 605C264.632 606.933 263.999 608.833 262.666 610.7C261.332 612.5 259.366 614 256.766 615.2C254.232 616.333 251.166 616.9 247.566 616.9C243.166 616.9 239.666 615.9 237.066 613.9C234.466 611.833 233.132 609.1 233.066 605.7C233.066 603.233 233.666 600.467 234.866 597.4L240.366 583C240.699 582.133 240.866 581.433 240.866 580.9C240.866 580.033 240.566 579.367 239.966 578.9C239.432 578.367 238.766 578.1 237.966 578.1C236.499 578.1 235.099 578.8 233.766 580.2C232.432 581.533 231.466 583.2 230.866 585.2L224.666 605.6C224.399 606.333 224.266 607.033 224.266 607.7C224.266 608.5 224.432 609.167 224.766 609.7C225.099 610.167 225.566 610.667 226.166 611.2C226.632 611.6 226.966 611.967 227.166 612.3C227.366 612.633 227.399 613.033 227.266 613.5C226.999 614.367 226.366 615 225.366 615.4C224.366 615.8 222.799 616 220.666 616H197.866C196.132 616 194.899 615.733 194.166 615.2C193.366 614.6 193.066 613.833 193.266 612.9C193.532 612.1 194.232 611.4 195.366 610.8C196.366 610.267 197.199 609.633 197.866 608.9C198.532 608.167 199.099 607 199.566 605.4L208.466 576.5C208.599 576.167 208.666 575.7 208.666 575.1C208.666 574.367 208.499 573.8 208.166 573.4C207.899 573 207.432 572.5 206.766 571.9C206.099 571.367 205.632 570.9 205.366 570.5C205.099 570.1 205.066 569.567 205.266 568.9C205.666 567.367 207.766 566.033 211.566 564.9C215.366 563.7 219.332 563.1 223.466 563.1C226.799 563.1 229.432 564.033 231.366 565.9C233.299 567.7 234.166 570.233 233.966 573.5C236.699 569.567 239.599 566.867 242.666 565.4C245.732 563.867 249.066 563.1 252.666 563.1C256.732 563.1 259.999 564.333 262.466 566.8C264.999 569.267 266.266 572.467 266.266 576.4C266.266 578.467 265.932 580.5 265.266 582.5L259.166 602.2ZM301.748 562.2C307.281 562.2 312.048 562.7 316.048 563.7C320.114 564.7 323.214 566.1 325.348 567.9C327.548 569.7 328.648 571.733 328.648 574C328.648 576.333 327.714 578.233 325.848 579.7C324.048 581.167 321.514 581.9 318.248 581.9C314.914 581.9 312.081 581.067 309.748 579.4C307.481 577.733 306.348 575.633 306.348 573.1C306.348 572.233 306.481 571.4 306.748 570.6C305.548 570.267 304.481 570.1 303.548 570.1C301.881 570.1 300.481 570.5 299.348 571.3C298.281 572.1 297.781 573.233 297.848 574.7C297.848 576.433 298.714 577.9 300.448 579.1C302.181 580.3 304.981 581.8 308.848 583.6C312.181 585.067 314.914 586.433 317.048 587.7C319.248 588.9 321.081 590.433 322.548 592.3C324.081 594.167 324.848 596.367 324.848 598.9C324.848 599.433 324.714 600.433 324.448 601.9C323.381 606.367 320.414 609.9 315.548 612.5C310.681 615.1 304.281 616.4 296.348 616.4C287.414 616.4 280.314 615.2 275.048 612.8C269.848 610.4 267.248 607.1 267.248 602.9C267.248 600.033 268.114 597.867 269.848 596.4C271.581 594.933 273.881 594.2 276.748 594.2C280.081 594.2 282.914 595.233 285.248 597.3C287.648 599.367 288.848 602 288.848 605.2C288.848 606.067 288.748 606.967 288.548 607.9C290.148 608.3 291.681 608.5 293.148 608.5C294.881 608.5 296.314 608.033 297.448 607.1C298.581 606.167 299.148 604.867 299.148 603.2C299.081 601.667 298.314 600.367 296.848 599.3C295.381 598.167 293.048 596.833 289.848 595.3C286.848 593.9 284.381 592.6 282.448 591.4C280.514 590.133 278.848 588.567 277.448 586.7C276.114 584.833 275.448 582.633 275.448 580.1C275.448 574.633 277.714 570.3 282.248 567.1C286.848 563.833 293.348 562.2 301.748 562.2ZM393.425 549.4C395.892 549.4 397.792 549.933 399.125 551C400.525 552.067 401.225 553.533 401.225 555.4C401.225 556.333 401.092 557.233 400.825 558.1L398.225 567.4C397.758 569.2 397.058 570.467 396.125 571.2C395.258 571.867 393.992 572.2 392.325 572.2C390.725 572.2 389.458 571.867 388.525 571.2C387.658 570.467 386.992 569.3 386.525 567.7L384.925 562C384.592 560.8 384.192 560 383.725 559.6C383.258 559.2 382.358 559 381.025 559H370.525L365.525 576.8H369.925C370.392 576.8 371.025 576.467 371.825 575.8L375.225 572.8C376.225 571.933 377.092 571.3 377.825 570.9C378.558 570.5 379.458 570.3 380.525 570.3C381.725 570.3 382.692 570.633 383.425 571.3C384.225 571.9 384.625 572.7 384.625 573.7C384.625 573.967 384.558 574.367 384.425 574.9L380.325 588.8C379.925 590.267 379.225 591.367 378.225 592.1C377.292 592.767 376.258 593.1 375.125 593.1C373.258 593.1 371.858 592.133 370.925 590.2L369.225 586.7C368.758 585.7 368.025 585.2 367.025 585.2H363.125L357.225 606.4H366.025C367.292 606.4 368.392 606.167 369.325 605.7C370.325 605.167 371.392 604.267 372.525 603L378.525 596.4C379.592 595.267 380.592 594.467 381.525 594C382.525 593.467 383.725 593.2 385.125 593.2C386.592 593.2 387.792 593.533 388.725 594.2C389.658 594.867 390.125 595.867 390.125 597.2C390.125 597.733 390.025 598.367 389.825 599.1L386.925 609.2C386.192 611.733 385.125 613.5 383.725 614.5C382.325 615.5 380.292 616 377.625 616H329.925C328.525 616 327.458 615.767 326.725 615.3C325.925 614.833 325.525 614.2 325.525 613.4C325.525 613 325.625 612.567 325.825 612.1C326.092 611.367 326.525 610.8 327.125 610.4C327.725 610 328.092 609.767 328.225 609.7C329.292 609.033 330.158 608.367 330.825 607.7C331.492 606.967 332.058 605.8 332.525 604.2L344.825 561.1C345.092 560.233 345.225 559.433 345.225 558.7C345.225 557.9 345.092 557.233 344.825 556.7C344.625 556.167 344.292 555.6 343.825 555C343.225 554.133 342.925 553.433 342.925 552.9C342.925 552.7 342.992 552.333 343.125 551.8C343.392 550.933 343.992 550.333 344.925 550C345.858 549.6 347.225 549.4 349.025 549.4H393.425ZM444.015 563.1C447.548 563.1 450.482 564.367 452.815 566.9C455.148 569.433 456.315 572.9 456.315 577.3C456.315 583.233 454.248 589.3 450.115 595.5C445.982 601.7 440.748 606.833 434.415 610.9C428.082 614.9 421.915 616.9 415.915 616.9C410.182 616.9 405.515 615.733 401.915 613.4C398.382 611.067 396.615 607.733 396.615 603.4C396.615 601.8 396.915 600 397.515 598L403.815 576.5C403.948 575.967 404.015 575.567 404.015 575.3C404.015 574.633 403.848 574.067 403.515 573.6C403.182 573.133 402.715 572.633 402.115 572.1C401.115 571.233 400.615 570.467 400.615 569.8C400.548 568.867 401.115 567.867 402.315 566.8C403.515 565.733 405.182 564.867 407.315 564.2C409.515 563.467 411.982 563.1 414.715 563.1C419.182 563.1 422.648 564.2 425.115 566.4C427.648 568.533 428.915 571.333 428.915 574.8C428.915 576.333 428.648 578 428.115 579.8L421.615 601.2C421.415 601.8 421.315 602.3 421.315 602.7C421.315 603.567 421.615 604.233 422.215 604.7C422.815 605.167 423.648 605.4 424.715 605.4C426.182 605.4 427.882 604.767 429.815 603.5C431.815 602.167 433.782 600.3 435.715 597.9C437.648 595.433 439.215 592.533 440.415 589.2C437.748 586.867 435.848 584.567 434.715 582.3C433.648 580.033 433.115 577.7 433.115 575.3C433.115 571.9 434.048 569.033 435.915 566.7C437.782 564.3 440.482 563.1 444.015 563.1ZM481.378 563.1C485.245 563.1 488.078 563.833 489.878 565.3C491.678 566.767 492.578 568.767 492.578 571.3C492.578 572.833 492.345 574.3 491.878 575.7L482.678 605.6C482.478 606.4 482.378 607.1 482.378 607.7C482.378 608.567 482.545 609.267 482.878 609.8C483.211 610.267 483.678 610.733 484.278 611.2C484.745 611.667 485.078 612.067 485.278 612.4C485.478 612.667 485.511 613.033 485.378 613.5C485.045 614.367 484.378 615 483.378 615.4C482.378 615.8 480.845 616 478.778 616H455.978C454.245 616 452.978 615.733 452.178 615.2C451.378 614.6 451.111 613.833 451.378 612.9C451.645 612.1 452.345 611.4 453.478 610.8C454.478 610.267 455.311 609.633 455.978 608.9C456.645 608.167 457.211 607 457.678 605.4L466.378 576.5C466.578 575.9 466.678 575.4 466.678 575C466.678 574.267 466.511 573.7 466.178 573.3C465.845 572.833 465.345 572.367 464.678 571.9C464.011 571.367 463.545 570.9 463.278 570.5C463.011 570.1 462.978 569.567 463.178 568.9C463.578 567.367 465.678 566.033 469.478 564.9C473.278 563.7 477.245 563.1 481.378 563.1ZM488.078 541C490.678 541 492.845 541.867 494.578 543.6C496.311 545.267 497.178 547.333 497.178 549.8C497.178 551.533 496.711 553.233 495.778 554.9C494.911 556.567 493.645 557.933 491.978 559C490.378 560 488.578 560.5 486.578 560.5C484.045 560.5 481.911 559.667 480.178 558C478.511 556.267 477.645 554.133 477.578 551.6C477.578 549.933 478.011 548.3 478.878 546.7C479.745 545.033 480.978 543.667 482.578 542.6C484.178 541.533 486.011 541 488.078 541ZM523.599 542.1C527.466 542.1 530.299 542.833 532.099 544.3C533.966 545.767 534.899 547.767 534.899 550.3C534.899 551.767 534.666 553.2 534.199 554.6L518.499 605.6C518.299 606.4 518.199 607.1 518.199 607.7C518.199 608.567 518.366 609.267 518.699 609.8C519.033 610.267 519.499 610.733 520.099 611.2C520.566 611.667 520.899 612.067 521.099 612.4C521.299 612.667 521.333 613.033 521.199 613.5C520.866 614.367 520.199 615 519.199 615.4C518.199 615.8 516.666 616 514.599 616H491.799C490.066 616 488.799 615.733 487.999 615.2C487.199 614.6 486.933 613.833 487.199 612.9C487.466 612.1 488.166 611.4 489.299 610.8C490.299 610.267 491.133 609.633 491.799 608.9C492.466 608.167 493.033 607 493.499 605.4L508.699 555.5C508.899 554.9 508.999 554.4 508.999 554C508.999 553.267 508.799 552.667 508.399 552.2C508.066 551.733 507.599 551.267 506.999 550.8C506.333 550.267 505.833 549.8 505.499 549.4C505.233 549 505.199 548.467 505.399 547.8C505.799 546.267 507.899 544.933 511.699 543.8C515.499 542.667 519.466 542.1 523.599 542.1ZM581.52 563.1C583.72 563.1 585.754 563.633 587.62 564.7C589.554 565.767 591.054 567.133 592.12 568.8C593.254 570.467 593.82 572.2 593.82 574C593.82 576.533 593.12 578.733 591.72 580.6C590.32 582.4 588.087 584.2 585.02 586L563.82 598.6C565.82 600.867 567.787 602 569.72 602C571.254 602 572.62 601.433 573.82 600.3C575.02 599.167 576.387 597.533 577.92 595.4C578.854 594.133 579.554 593.233 580.02 592.7C580.487 592.167 580.954 591.9 581.42 591.9C582.62 591.9 583.92 592.333 585.32 593.2C586.787 594.067 588.02 595.333 589.02 597C590.087 598.667 590.62 600.667 590.62 603C590.62 605.4 589.987 607.633 588.72 609.7C587.52 611.7 585.787 613.3 583.52 614.5C581.32 615.7 578.72 616.3 575.72 616.3C572.787 616.3 570.32 615.8 568.32 614.8C566.32 613.733 564.754 612.567 563.62 611.3C562.554 610.033 561.487 608.533 560.42 606.8C559.554 605.267 558.887 604.5 558.42 604.5C558.02 604.5 557.587 604.733 557.12 605.2C556.72 605.667 556.12 606.467 555.32 607.6C553.52 610.2 551.654 612.3 549.72 613.9C547.854 615.5 545.387 616.3 542.32 616.3C539.387 616.3 536.72 615.767 534.32 614.7C531.987 613.633 530.12 612.233 528.72 610.5C527.387 608.7 526.72 606.767 526.72 604.7C526.72 601.033 529.154 597.667 534.02 594.6L559.72 578.9C558.587 577.5 557.587 576.5 556.72 575.9C555.854 575.3 554.92 575 553.92 575C552.654 575 551.554 575.467 550.62 576.4C549.754 577.267 548.854 578.5 547.92 580.1C547.254 581.167 546.687 581.967 546.22 582.5C545.82 583.033 545.354 583.3 544.82 583.3C542.754 583.3 540.954 582.567 539.42 581.1C537.887 579.633 537.12 577.633 537.12 575.1C537.12 573.033 537.62 571.1 538.62 569.3C539.687 567.433 541.154 565.933 543.02 564.8C544.954 563.667 547.187 563.1 549.72 563.1C553.387 563.1 556.22 564 558.22 565.8C560.287 567.533 562.12 569.7 563.72 572.3C564.654 573.767 565.287 574.5 565.62 574.5C565.954 574.5 566.32 574.3 566.72 573.9C567.187 573.433 567.554 573 567.82 572.6C568.154 572.133 568.42 571.8 568.62 571.6C570.62 569 572.554 566.933 574.42 565.4C576.287 563.867 578.654 563.1 581.52 563.1Z" fill="#004BBB"/>
</svg>
